<svg width="254" height="114" xmlns="http://www.w3.org/2000/svg"><path d="M165.424 113.214l.06.657h-.186c-.548 0-.982-.01-1.335-.017-.238-.006-.437-.011-.609-.011-.276 0-.572.007-.884.013-.342.007-.702.015-1.07.015h-.14l-.118-.64 1.249-.115c.223-.025.226-.045.234-.114l.004-.157c.01-.282.023-.666.023-1.188v-2.096c0-.604 0-1.081-.01-1.347l-.001-.01c-.252.009-.775.038-1.062.057l-.217.012.133-.698.126-.012c.837-.08 2.04-.277 2.258-.353l.074-.026.22.126v.097c0 .118-.004.282-.01.495-.01.406-.028.995-.028 1.816v1.861c0 .579.01 1.034.03 1.431 0 .077.009.096.01.098.002 0 .02.012.086.02l1.163.086zm-5.301-1.528a2.12 2.12 0 01-.536 1.425c-.509.573-1.353.889-2.376.889-1.414 0-2.44-.619-2.44-1.472a.75.75 0 01.76-.754c.346 0 .463.24.54.503.153.684.557 1.023 1.2 1.023 1.063 0 1.221-.918 1.221-1.466 0-.455-.14-.816-.39-1.015-.24-.183-.485-.258-.842-.258-.983 0-1.397.55-1.53.786l-.11.198-.538-.549.034-.098c.256-.76.494-3.043.483-3.419l-.006-.221.217.054c.117.03.367.083.715.114.246.021.64.048 1.119.048 1.22 0 1.567-.05 1.86-.426l.113-.142.438.396-.043.109c-.202.491-.56.908-.931 1.086-.303.165-.827.253-1.545.253-.462 0-.953-.033-1.25-.066-.062.399-.158.979-.267 1.505a3.754 3.754 0 011.664-.415c1.572 0 2.44.68 2.44 1.912zm-9.253-2.247c-.265-.166-.395-.382-.395-.661 0-.57.521-.87 1.035-.87h.011c.702 0 1.123.399 1.123 1.066 0 .416-.18.708-.6.963-.438-.147-.905-.317-1.174-.498zm1.953 2.943c0 .853-.884.918-1.154.918h-.011c-1.061 0-1.439-.63-1.439-1.222 0-.475.237-.817.746-1.071 1.491.561 1.858.836 1.858 1.375zm-.012-2.122c.251-.14.46-.278.63-.419.284-.257.429-.572.429-.936 0-1.12-1.093-1.705-2.173-1.705h-.008c-.872 0-1.56.25-2.05.75-.198.212-.459.57-.459 1.21 0 .664.315 1.14 1.012 1.52-.337.166-.603.301-.818.49-.324.292-.48.635-.48 1.045 0 1.118.97 1.785 2.596 1.785.713 0 1.461-.21 1.954-.55.51-.356.791-.868.791-1.44 0-.788-.392-1.285-1.424-1.75zm-4.96 2.954l.06.657h-.185c-.548 0-.984-.01-1.336-.017-.238-.006-.438-.011-.61-.011-.276 0-.571.007-.882.013-.343.007-.703.015-1.07.015h-.141l-.118-.64 1.249-.115c.223-.025.224-.045.232-.114l.005-.157c.01-.282.024-.666.024-1.188v-2.096c0-.604 0-1.081-.01-1.347v-.01c-.253.009-.776.038-1.063.057l-.217.012.132-.698.127-.012c.836-.08 2.04-.277 2.258-.353l.075-.026.22.126v.097c0 .118-.004.282-.01.495-.013.406-.028.995-.028 1.816v1.861c0 .598.008 1.05.029 1.431 0 .077.01.096.01.098.002 0 .02.012.084.02l1.165.086zm-7.788-.127c0 .518-.367.893-.871.893-.51 0-.879-.375-.879-.893 0-.514.378-.902.879-.902h.01c.49 0 .86.388.86.902zm-2.202-.843l.183.597-.023.055c-.285.705-.93 1.093-1.816 1.093-.578 0-.992-.165-1.231-.489-.145-.193-.211-.435-.211-.785-.007-.55.008-1.481.02-2.228l.007-.439-.84-.071.134-.671h.718v-1.232l.122-.035c.42-.122.82-.32.966-.44l.072-.058.312.097-.008.133c-.018.263-.045 1-.049 1.535h1.723l-.096.682-1.65.076a86.9 86.9 0 00-.004.265c-.006.248-.013.564-.013 1.014 0 .757.01 1.278.066 1.532.046.278.256.318.378.318.458 0 .65-.318.814-.831l.038-.118h.388zm-7.03-.2c.116.03.238.057.365.084.33.074.672.152.99.249.302.083.341.236.341.358 0 .332-.364.547-.926.547-.593 0-1.013-.254-1.191-.727-.12-.25-.154-.511-.181-.705l-.007-.05c.168.101.37.183.609.245zm.347-1.284c-.314-.08-.355-.235-.355-.376 0-.314.266-.517.679-.517.736 0 1.181.432 1.253 1.218l.005.062c-.003-.002-.004-.002-.007-.002a10.651 10.651 0 00-.82-.201 10.54 10.54 0 01-.755-.184zm1.822.467l.434-.078-.005-.146a8.543 8.543 0 01.085-1.641l.024-.146-.629-.182-.133.348c-.284-.134-.722-.224-1.147-.224-.928 0-2.013.414-2.013 1.578 0 .405.154.727.462.965l-.506.063.004.152c.022.822-.021 1.46-.03 1.58l-.009.125.118.045c.32.12 1.066.323 1.826.323 1.16 0 2.332-.5 2.332-1.616 0-.56-.261-.928-.813-1.146zm-4.666.283l.587.078v.147c0 .252-.24 1.739-.31 2.027l-.035.14-.143-.01c-.425-.034-1.337-.05-2.71-.05H124.3c-.324 0-.726.013-1.095.022-.317.01-.609.018-.81.018h-.174l.02-.665.908-.082c.164-.012.186-.015.193-.259.025-.35.039-.834.039-1.443v-1.998c0-.683-.011-1.208-.029-1.478-.005-.073-.006-.103-.228-.118l-.83-.074v-.644h.17c.15 0 .385.008.654.016.353.01.765.023 1.113.023h2.171c.831 0 1.48-.047 1.694-.077l.224-.03-.033.22c-.036.256-.058 1.246-.028 1.869l.008.165-.646.039-.024-.15a4.723 4.723 0 00-.237-.924c-.128-.306-.232-.413-1.392-.413H125c-.014 0-.027 0-.036.002-.022.32-.04.805-.04 1.298v.885c.16.007.404.007.54.007 1.068 0 1.095-.176 1.195-.829l.022-.142h.637l-.017.184a16.902 16.902 0 00-.029 2.452l.011.184-.66-.022-.015-.146c-.07-.722-.092-.964-1.154-.964-.125 0-.371 0-.53.007v.686a33.408 33.408 0 00.033 1.63c.081.054.748.054 1.07.054 1.163 0 1.436-.073 1.669-.296.233-.221.467-.762.597-1.2l.04-.139zm-8.777 1.703l.173.006-.04.663h-.16c-.178 0-.377-.01-.588-.019-.23-.01-.476-.02-.724-.02-.295 0-.529.012-.738.021-.175.01-.333.018-.494.018h-.175l.019-.66.157-.009c.4-.02.493-.054.511-.074 0 0 .006-.01.01-.05.03-.21.049-.722.049-1.373 0-1.092-.048-1.253-.114-1.363-.078-.136-.225-.31-.636-.31-.56 0-.942.208-1.238.675-.085.13-.102.282-.102.469v.783c0 .526.01.914.02 1.118.006.073.012.116.534.125l.172.003-.02.666h-.166c-.14 0-.33-.008-.535-.018-.24-.009-.504-.021-.737-.021-.319 0-.572.012-.794.023-.178.008-.335.016-.49.016h-.169v-.666l.167-.003c.558-.01.561-.062.564-.134l.007-.142c.013-.27.033-.723.033-1.554v-2.723c0-.567-.008-.895-.027-1.108-.104-.028-.443-.034-.577-.036l-.172-.003.021-.653.161-.002c.653-.011 1.616-.08 1.853-.117l.2-.031-.015.541c-.013.394-.03.923-.03 1.497v1.079c.435-.345 1.048-.67 1.814-.67 1.134 0 1.487.672 1.546.808.1.207.144.446.144.79v2.341c0 .037.001.06.004.067.034.02.232.04.582.05zm-7.03-1.314l.605.338-.05.134c-.395 1.074-1.215 1.618-2.438 1.618-.91 0-1.555-.21-2.033-.662-.427-.416-.644-.98-.644-1.68 0-1.512 1.129-2.49 2.874-2.49 1.313 0 2.162.54 2.162 1.375 0 .52-.41.754-.791.754a.684.684 0 01-.426-.129.37.37 0 01-.136-.333c.018-.095.029-.2.029-.292 0-.339-.103-.685-.868-.685-1.217 0-1.312 1.258-1.312 1.643 0 .466.1.838.295 1.107.258.366.634.537 1.185.537.746 0 1.133-.278 1.474-1.065l.074-.17zm-5.128 1.314l.166.007-.019.662h-.165c-.174 0-.37-.008-.579-.018-.238-.009-.494-.021-.762-.021-.335 0-.586.013-.794.024a7.91 7.91 0 01-.41.015h-.169v-.66l.161-.009c.51-.027.514-.064.52-.123.019-.196.05-.656.05-1.49 0-.952-.02-1.083-.106-1.23-.13-.222-.325-.316-.653-.316-.551 0-.952.226-1.226.698-.072.137-.106.228-.106.503v.844c0 .417.01.824.02 1.03.026.043.13.076.574.084l.176.003-.038.666h-.16c-.152 0-.354-.008-.57-.018a22.869 22.869 0 00-.884-.022c-.237 0-.436.012-.63.021-.171.01-.334.019-.503.019h-.169v-.663l.165-.006c.138-.004.506-.016.56-.064 0 0 .004-.012.006-.05.02-.289.04-.623.04-1.296v-.635c0-.514-.01-.93-.028-1.144-.095-.024-.37-.027-.526-.03l-.182-.002.059-.658h.155c.6 0 1.179-.046 1.669-.133l.18-.034.041.414c.01.094.02.183.027.262.423-.355.986-.685 1.764-.685 1.01 0 1.424.493 1.58.784.116.181.179.44.179.756v2.41c0 .047.002.062.004.066.042.016.368.03.583.04zm-10.393-.82c0-.324.155-.422.537-.582.151-.063.34-.137.537-.215.242-.095.488-.193.686-.276l-.007.64c0 .17-.02.292-.065.406-.136.322-.49.7-1.039.7-.4 0-.65-.254-.65-.664v-.01zm4.24.219l-.641-.252-.045.19c-.108.452-.264.545-.299.545-.046 0-.097 0-.097-.273v-2.272c0-.245-.064-.486-.179-.664-.19-.272-.682-.728-1.836-.728-1.441 0-2.41.756-2.41 1.46 0 .388.272.639.693.639.19 0 .325-.033.48-.116.156-.078.241-.246.21-.396a2.474 2.474 0 01-.018-.263c0-.416.308-.646.866-.646.751 0 .79.57.79.685v.078c-.369.184-1.022.382-1.657.574-.296.09-.59.179-.855.268-.486.168-.765.564-.765 1.087 0 .888.647 1.461 1.65 1.461.564 0 1.15-.235 1.676-.667.153.443.508.667 1.057.667.712 0 1.165-.416 1.35-1.238l.03-.14zm-10.728-3.364c0-.855.027-1.156.048-1.332 0-.031.007-.036.026-.042.122-.025.406-.055.653-.055.733 0 .968.18 1.098.345.137.152.214.411.214.712 0 .905-.5 1.242-1.843 1.242h-.196v-.87zm4.564 3.95c-.078.01-.195.025-.293.025-.273 0-.407-.092-.483-.62-.032-.406-.078-.67-.151-.895-.178-.77-.738-1.116-1.36-1.28.66-.199 1.403-.635 1.403-1.66 0-.459-.148-.843-.426-1.11-.39-.376-.985-.526-2.12-.537-.317 0-.684.01-1.047.02-.35.01-.696.019-.987.019-.38 0-.77-.015-1.07-.026a12.837 12.837 0 00-.45-.013h-.14l-.133.648.988.099c.136.012.139.04.142.095l.002.052c.011.214.027.575.027 1.438v2.194c0 .634-.02 1.036-.033 1.276l-.006.117c-.003.08-.203.115-.889.162l-.153.011-.019.669h.174c.173 0 .38-.008.614-.016.302-.01.647-.023 1.024-.023.232 0 .54.01.849.019.312.01.626.02.859.02h.155l.057-.668-.172-.012c-.886-.056-.891-.106-.897-.189l-.005-.11c-.011-.251-.024-.607-.024-1.196v-.88h.185c1.038 0 1.726.071 1.836 1.038.016.125.031.248.045.375l.032.282c.08 1.015.556 1.447 1.591 1.447.305 0 .74-.04.94-.107l.104-.033.051-.448-.008-.208-.212.025zM254 98.554l-.028.987h-.164c-.418 0-.918-.016-1.441-.035a49.821 49.821 0 00-1.705-.039c-.696 0-1.572.027-2.276.05-.32.01-.61.019-.847.024l-.173.004v-.994l.165-.004c1.526-.037 1.787-.181 1.825-.51a53.7 53.7 0 00.038-2.5V93.5a210.042 210.042 0 00-3.68-.035c-1.358 0-2.604.018-3.28.034v2.113c0 1.045.019 1.853.056 2.471.013.28.28.388 1.83.463l.16.008v.99l-.172-.004c-.28-.007-.61-.015-.968-.026a82.167 82.167 0 00-2.384-.048c-.613 0-1.322.022-2.008.044-.384.012-.754.023-1.077.03l-.173.004v-.995l.166-.003c1.51-.019 1.813-.182 1.824-.459.05-.448.095-1.054.095-2.514v-5.078c0-.927 0-1.539-.019-2.177-.023-.296-.287-.4-1.884-.458l-.166-.006.027-.987h.164c.266 0 .663.013 1.123.028.64.021 1.365.047 2.042.047.334 0 .833-.016 1.366-.035.625-.019 1.272-.04 1.781-.04h.18l-.058.992-.157.001c-1.578.02-1.66.187-1.671.48-.052.475-.077 1.235-.077 2.268v1.774c.683.014 1.966.014 3.319.014 1.39 0 2.598 0 3.641-.016v-1.885c0-1.112 0-1.726-.04-2.263-.022-.235-.508-.337-1.785-.372l-.16-.004-.031-.99h.174c.61 0 1.3.024 1.907.045.472.016.894.031 1.183.031.664 0 1.579-.03 2.246-.051.429-.013.778-.024.939-.024h.169v.987l-.162.006c-1.469.058-1.722.2-1.732.497-.04.602-.057 1.324-.057 2.215v4.7c0 1.32.04 2.236.074 2.773.04.354.202.444 1.715.501l.166.007zm-18.895-3.573l.91.601-.044.123c-.974 2.746-3.107 4.138-6.34 4.138-2.383 0-4.359-.7-5.562-1.971-1.074-1.124-1.618-2.637-1.618-4.497 0-2.18.792-3.921 2.356-5.173 1.356-1.086 3.108-1.636 5.204-1.636 1.74 0 3.319.436 4.288 1.172l.445-1.094.878.253-.024.147c-.188 1.188-.339 3.096-.242 4.683l.008.153-.961.145-.012-.182c-.127-1.928-.953-4.226-4.17-4.226-1.413 0-2.516.42-3.37 1.286-.908.922-1.41 2.403-1.41 4.17 0 1.587.478 3.01 1.344 4.01 1.036 1.18 2.522 1.428 3.586 1.428 2.281 0 3.76-1.06 4.657-3.337l.077-.193zm-14.126-8.094h.169v.957l-.233.025c-.486.052-.833.088-1.13.158-.349.063-.453.169-.537.547-.132.723-.223 2.985-.223 5.628v5.371l-.163.007c-.401.016-.98.12-1.353.203l-.102.022-.067-.081c-1.83-2.256-4.87-5.784-7.556-8.896l-1.221-1.42c.004 2.848.046 7.713.186 8.371.103.44.274.539.596.582a20.32 20.32 0 001.692.167l.175.01-.085.985h-.156c-.395 0-.82-.012-1.288-.024a64.565 64.565 0 00-1.896-.032c-.655 0-1.238.019-1.707.035-.337.012-.623.021-.851.021h-.179l.055-.995h.16c.215 0 .524-.034.823-.068.136-.016.27-.03.395-.043.455-.058.59-.215.683-.799.113-.655.298-5.293.3-9.099a.843.843 0 00-.216-.311c-.06-.071-.327-.19-.994-.254l-1.197-.107v-.96h.17c.182 0 .511.008.894.02.532.016 1.168.036 1.664.036.837 0 1.37-.016 1.843-.056l.094-.008.056.073c.15.2.375.465.749.904.18.21.393.463.648.765.683.814 3.364 3.827 6.715 7.552.027-5.249-.135-7.028-.208-7.554-.074-.47-.23-.627-1.057-.682l-1.553-.065.17-.985h.144c.561 0 1.128.014 1.663.03.477.013.93.026 1.331.026.497 0 1.077-.017 1.589-.034a34.06 34.06 0 011.008-.022zm-36.583 3.195c0 2.11-1.477 2.54-3.697 2.54h-.531v-1.824c0-1.657.052-2.24.094-2.56 0-.124.057-.198.17-.229.251-.055.805-.11 1.29-.11 1.473 0 1.958.379 2.224.716.286.318.45.852.45 1.467zm13.895 3.643a63.151 63.151 0 01-3.802-.003c.598-1.483 1.128-2.739 1.6-3.853l.385-.912c.162.424.33.858.498 1.293.461 1.194.938 2.425 1.32 3.475zm5.598 4.767c-.547-.052-.79-.178-.97-.5-.76-1.27-3.367-7.895-4.62-11.079l-.113-.29-.161.069c-.38.164-1.51.258-1.881.289l-.127.012-.025.122c-.048.246-.147.5-.383 1.108l-.06.158c-.62 1.445-3.314 7.494-4.014 8.866-.537 1.044-.994 1.24-2.157 1.296l.006-.039-.263.033c-.158.018-.399.048-.594.048-.676 0-.939-.326-1.082-1.33-.063-.77-.148-1.266-.287-1.698-.386-1.675-1.723-2.255-3.168-2.487 2.181-.46 3.246-1.51 3.246-3.194 0-.84-.266-1.538-.771-2.021-.718-.692-1.83-.968-3.966-.987-.605 0-1.308.02-2.003.037-.673.02-1.34.038-1.9.038-.73 0-1.47-.028-2.064-.051-.37-.012-.671-.024-.855-.024h-.137l-.2.956 1.724.168c.365.033.403.165.414.33l.004.085c.02.412.054 1.102.054 2.786v4.212c0 1.202-.04 1.975-.065 2.439l-.01.244c-.012.265-.23.346-1.853.46l-.152.01-.03.983h.175c.331 0 .727-.013 1.174-.03a52.393 52.393 0 011.972-.044c.445 0 1.04.018 1.636.036.598.02 1.196.038 1.644.038h.155l.084-.982-.173-.012c-1.758-.113-1.844-.208-1.869-.515l-.009-.227c-.02-.49-.047-1.163-.047-2.287v-1.845h.511c2.015 0 3.457.153 3.68 2.131.033.232.059.465.086.704.02.185.042.376.065.565.147 1.873.988 2.637 2.9 2.637.561 0 1.353-.07 1.731-.19v.02h.175c.507 0 1.084-.02 1.591-.04.435-.018.835-.033 1.138-.033.569 0 1.045.02 1.505.042.39.017.75.032 1.11.032h.17v-.987l-.162-.007c-.954-.036-1.62-.106-1.776-.322-.074-.102-.063-.278.035-.608.124-.408.398-1.074.745-1.918.11-.267.227-.55.347-.846.397-.014 1.302-.014 2.253-.014.964 0 1.958 0 2.405.014.312.771.666 1.695.943 2.417l.34.881c.03.08.036.134.017.161-.126.184-1.155.222-1.494.235l-.182.007.113.99.153-.003c.444-.007.857-.02 1.27-.034.6-.02 1.221-.04 1.932-.04.95 0 1.914.035 2.553.06l.595.02-.027-.989-1.001-.066zm-34.085.036l.2.014-.227.984-.337-.007c-.844-.017-1.51-.03-2.154.022-.762.04-1.513.097-1.892.132l-.093.009-.057-.073c-.284-.36-1.757-1.918-3.058-3.293-.856-.908-1.67-1.768-2.108-2.247-.437-.418-.626-.557-.824-.564v1.769c0 1.222.04 2.031.062 2.517l.014.28c.024.294.09.362 1.791.457l.17.01-.056.985h-.16c-.373 0-.868-.012-1.408-.025-.64-.015-1.338-.03-1.965-.03-.683 0-1.33.017-1.893.033-.438.012-.825.022-1.14.022h-.174l.027-.985.156-.01c1.641-.095 1.827-.178 1.85-.464.044-.267.094-.923.094-2.602v-4.628c0-.374.002-.7.003-.984.004-.714.005-1.183-.022-1.543-.012-.32-.204-.369-1.715-.446l-.17-.009.056-.965h.16c.254 0 .636.009 1.073.021.579.016 1.253.035 1.845.035.613 0 1.298-.019 1.892-.035a48.24 48.24 0 011.123-.021h.154l.087.965-.175.01c-1.448.077-1.55.126-1.586.434-.032.391-.093 1.131-.093 2.37v1.931c1.706-.645 5.051-3.749 5.672-4.483l.053-.07a.537.537 0 00-.08-.015l-1.53-.172.224-.97h.136c.384 0 .798.01 1.237.025.492.015 1.017.031 1.568.031.762 0 1.544-.032 2.115-.055l.514-.02.165-.006.057.99-.17.01c-1.454.075-2.052.212-2.665.612-.641.428-1.882 1.437-3.08 2.41-.588.478-1.178.959-1.714 1.382 1.816 2.031 4.772 4.945 5.586 5.605.549.491.956.563 2.462.657zm-25.381.94c-.623 0-1.412.02-2.107.04-.606.018-1.167.033-1.552.033h-.175l.029-.979 1.609-.145c.366-.03.493-.068.51-.647.051-.674.075-1.582.075-2.778v-3.838c0-1.317-.02-2.328-.056-2.847-.01-.186-.02-.334-.582-.37l-1.447-.128v-.941h.17c.285 0 .736.015 1.251.03.691.02 1.474.045 2.142.045h4.17c1.59 0 2.851-.091 3.275-.15l.222-.029-.033.22c-.071.501-.113 2.418-.055 3.617l.008.165-.943.058-.026-.15c-.126-.747-.283-1.356-.464-1.81-.283-.672-.564-.89-2.819-.89h-1.856c-.22 0-.22.015-.23.13-.019.281-.076 1.308-.076 2.525v1.842c.294.02.865.02 1.196.02 2.099 0 2.24-.356 2.447-1.718l.023-.143h.92l-.02.183c-.129 1.355-.15 3.213-.055 4.733l.013.184-.961-.03-.014-.147c-.146-1.513-.292-1.993-2.372-1.993-.328 0-.894 0-1.177.02v1.468c0 1.272.022 2.386.057 3.056.01.227.015.33 2.22.33 2.287 0 2.834-.151 3.313-.61.465-.446.93-1.512 1.187-2.372l.04-.137.86.113v.146c0 .454-.465 3.33-.593 3.858l-.033.14-.143-.01c-.819-.064-2.574-.095-5.22-.095h-2.728zm-17.45.073h-.173l.028-.979 1.609-.145c.365-.03.493-.068.51-.647.05-.672.076-1.603.076-2.778v-3.838c0-1.308-.02-2.32-.056-2.847-.012-.194-.02-.334-.583-.37l-1.446-.128v-.941h.169c.285 0 .736.015 1.25.03.692.02 1.474.045 2.142.045h4.17c1.59 0 2.853-.091 3.275-.15l.222-.029-.031.22c-.073.501-.114 2.418-.056 3.617l.008.165-.943.058-.025-.15c-.128-.747-.283-1.356-.466-1.81-.283-.672-.564-.89-2.818-.89h-1.857c-.22 0-.22.015-.23.13a43.57 43.57 0 00-.074 2.525v1.842c.292.02.863.02 1.194.02 2.1 0 2.241-.356 2.448-1.718l.023-.143h.919l-.018.183c-.13 1.355-.153 3.213-.055 4.733l.01.184-.96-.03-.012-.147c-.148-1.513-.292-1.993-2.372-1.993-.329 0-.895 0-1.177.02v1.468c0 1.272.02 2.386.056 3.056.01.227.014.33 2.218.33 2.29 0 2.836-.151 3.315-.61.464-.446.931-1.512 1.186-2.372l.042-.137.857.113v.146c0 .454-.462 3.33-.59 3.858l-.033.14-.145-.01c-.817-.064-2.572-.095-5.218-.095h-2.73c-.623 0-1.412.022-2.107.042-.606.017-1.166.032-1.552.032zm-5.392-9.459c0 2.11-1.478 2.54-3.697 2.54h-.532v-1.824c0-1.65.053-2.237.094-2.56 0-.124.057-.198.17-.229.252-.055.804-.11 1.291-.11 1.47 0 1.958.379 2.225.716.285.318.449.852.449 1.467zm3.013 9.628c.573 0 1.387-.072 1.76-.196l.1-.033.113-.977-.258.031c-.15.019-.402.05-.597.05-.677 0-.94-.326-1.083-1.33-.062-.768-.147-1.263-.288-1.698-.384-1.675-1.721-2.255-3.167-2.487 2.183-.46 3.247-1.51 3.247-3.194 0-.84-.267-1.538-.771-2.021-.72-.692-1.831-.968-3.966-.987-.605 0-1.309.02-2.003.037-.675.02-1.34.038-1.901.038-.73 0-1.47-.028-2.063-.051-.37-.012-.672-.024-.856-.024h-.138l-.199.957 1.724.167c.367.033.405.165.414.33l.006.098c.019.414.053 1.105.053 2.773v4.212c0 1.206-.041 1.98-.065 2.443l-.011.239c-.012.266-.232.347-1.853.46l-.153.011-.028.983h.175c.33 0 .726-.013 1.173-.03a52.47 52.47 0 011.973-.044c.443 0 1.039.018 1.634.036.6.02 1.198.038 1.644.038h.156l.084-.982-.172-.012c-1.76-.114-1.844-.208-1.869-.515l-.008-.198c-.02-.494-.049-1.17-.049-2.316v-1.845h.513c2.014 0 3.456.153 3.68 2.131.032.23.057.462.083.7.022.186.043.378.068.569.146 1.873.986 2.637 2.898 2.637zm-25.609-1.838c-1.073-1.125-1.618-2.639-1.618-4.497 0-2.182.793-3.922 2.356-5.173 1.357-1.086 3.108-1.636 5.205-1.636 1.74 0 3.32.436 4.288 1.172l.445-1.094.878.253-.023.147c-.19 1.187-.34 3.093-.244 4.683l.009.153-.96.147-.013-.184c-.126-1.928-.952-4.226-4.172-4.226-1.412 0-2.514.42-3.366 1.286-.91.922-1.411 2.403-1.411 4.17 0 1.587.477 3.01 1.342 4.01.823.934 2.062 1.428 3.587 1.428 2.281 0 3.76-1.06 4.657-3.337l.076-.193.91.601-.044.123c-.974 2.746-3.107 4.138-6.338 4.138-2.384 0-4.36-.7-5.564-1.971zM88.63 99.58c-.404.016-.981.12-1.355.203l-.103.022-.065-.081c-1.836-2.26-4.884-5.799-7.576-8.92l-1.201-1.396c.004 2.85.046 7.716.185 8.371.102.44.273.539.595.582.466.063 1.032.133 1.693.167l.175.01-.086.985h-.155c-.394 0-.82-.012-1.288-.024a64.565 64.565 0 00-1.896-.032c-.655 0-1.238.019-1.708.035-.337.012-.623.021-.85.021h-.18l.058-.995h.16c.213 0 .521-.034.82-.068.137-.016.271-.03.394-.043.458-.058.592-.215.684-.799.113-.657.3-5.295.301-9.099a.881.881 0 00-.215-.311c-.062-.071-.33-.19-.996-.254l-1.196-.107v-.96h.17c.182 0 .51.008.894.02.531.016 1.169.036 1.664.036.835 0 1.37-.016 1.843-.056l.093-.008.057.073c.149.2.37.46.739.892.181.215.4.47.658.777.692.825 3.373 3.837 6.716 7.552.027-5.257-.136-7.03-.21-7.553-.074-.471-.23-.628-1.056-.683l-1.552-.065.169-.985h.143c.562 0 1.129.014 1.663.03.478.013.93.026 1.332.026.496 0 1.078-.017 1.587-.034.405-.013.766-.022 1.01-.022h.169v.957l-.232.025c-.486.052-.835.088-1.131.158-.35.063-.453.169-.536.547-.135.73-.224 2.942-.224 5.628v5.371l-.161.007zM62.516 89.073c.7-.95 1.873-1.494 3.218-1.494h.019c1.475 0 2.609.54 3.37 1.604.688.968 1.067 2.403 1.067 4.04 0 1.783-.333 3.157-.99 4.077-.89 1.218-2.221 1.473-3.18 1.473-1.424 0-2.585-.517-3.355-1.496-.797-1.008-1.234-2.5-1.234-4.204 0-2.078.59-3.324 1.085-4zm3.464-2.507h-.017c-4.547 0-7.6 2.713-7.6 6.752 0 4.025 2.831 6.525 7.39 6.525 4.629 0 7.504-2.622 7.504-6.845 0-3.908-2.856-6.432-7.277-6.432zm-9.887 9.178c0 3.022-2.947 4.1-5.705 4.1-1.305 0-3.208-.37-4.238-.824l-.117-.052.019-.127c.163-1.064.205-2.53.242-3.823l.005-.25.984-.261-.004.224c-.03 1.426.288 2.486.943 3.149.572.581 1.424.874 2.526.874 1.357 0 2.808-.577 2.808-2.2 0-.77-.322-1.216-1.11-1.54-.37-.16-1.004-.373-1.673-.597-.75-.253-1.523-.51-2.117-.757-1.552-.622-2.34-1.72-2.34-3.258 0-2.331 1.844-3.836 4.699-3.836 1.199 0 2.414.295 3.075.733l.366-.843.928.138-.034.173c-.32 1.623-.357 3.207-.357 4.257v.158l-1.001.055v-.177c0-2.155-1.134-3.443-3.034-3.443-1.437 0-2.295.752-2.295 2.014 0 .91.44 1.436 1.518 1.816.487.167.938.318 1.35.456.97.325 1.735.582 2.262.809 1.377.534 2.3 1.255 2.3 3.032zM39.67 90.082c0 2.11-1.477 2.54-3.696 2.54h-.532v-1.824c0-1.65.053-2.237.095-2.56 0-.124.057-.198.169-.229.253-.055.805-.11 1.29-.11 1.473 0 1.959.379 2.225.716.286.32.45.854.45 1.467zm4.131 8.503c-.676 0-.94-.326-1.082-1.33-.062-.768-.146-1.263-.287-1.698-.386-1.675-1.722-2.255-3.168-2.487 2.183-.46 3.248-1.51 3.248-3.194 0-.84-.268-1.538-.773-2.021-.718-.692-1.83-.968-3.964-.987-.606 0-1.31.02-2.004.037-.674.02-1.341.038-1.901.038-.73 0-1.468-.028-2.064-.051-.37-.012-.671-.024-.855-.024h-.138l-.198.957 1.724.167c.366.033.404.165.414.33l.004.09c.02.414.053 1.105.053 2.78v4.213c0 1.21-.04 1.985-.063 2.448l-.013.234c-.012.266-.23.347-1.852.46l-.152.011-.03.983h.175c.332 0 .727-.013 1.175-.03a52.393 52.393 0 011.971-.044c.444 0 1.04.018 1.635.036.6.02 1.197.038 1.645.038h.154l.086-.982-.172-.012c-1.76-.114-1.846-.208-1.87-.515l-.008-.198c-.02-.494-.049-1.17-.049-2.316v-1.845h.513c2.013 0 3.457.153 3.68 2.131.031.227.057.454.083.686.021.192.043.388.067.583.147 1.873.987 2.637 2.899 2.637.572 0 1.387-.072 1.759-.196l.103-.033.112-.977-.26.031c-.15.019-.4.05-.597.05zm-20.09-4.86a63.083 63.083 0 01-3.802-.003c.6-1.487 1.132-2.747 1.604-3.864l.379-.9.5 1.296c.46 1.193.937 2.423 1.319 3.471zm5.597 4.767c-.548-.052-.791-.178-.971-.5-.765-1.28-3.387-7.946-4.647-11.151l-.086-.218-.16.069c-.382.164-1.51.258-1.88.289l-.128.012-.024.122c-.05.247-.15.502-.387 1.117l-.059.15c-.618 1.441-3.31 7.488-4.013 8.865-.543 1.06-1.004 1.247-2.205 1.3l-.159.007-.028.987h.174c.506 0 1.083-.022 1.592-.042.434-.017.836-.032 1.138-.032.568 0 1.043.02 1.504.042.389.017.75.032 1.111.032h.17v-.987l-.163-.007c-.954-.036-1.62-.106-1.777-.322-.073-.102-.063-.278.037-.608.124-.411.399-1.081.748-1.93.11-.263.225-.542.342-.834.398-.014 1.302-.014 2.253-.014.965 0 1.958 0 2.406.014.313.772.667 1.698.945 2.421l.338.878c.03.08.035.133.017.16-.125.184-1.155.222-1.493.235l-.183.007.114.99.153-.003c.443-.007.856-.02 1.269-.034.6-.02 1.22-.04 1.93-.04.953 0 1.917.035 2.555.06l.596.02-.027-.989-1.002-.066zm-16.654-3.511l.91.601-.045.123c-.973 2.746-3.105 4.138-6.338 4.138-2.383 0-4.358-.7-5.563-1.971C.544 96.747 0 95.233 0 93.375c0-2.18.793-3.921 2.356-5.173 1.356-1.086 3.106-1.636 5.205-1.636 1.739 0 3.318.436 4.288 1.172l.445-1.094.877.253-.023.147c-.19 1.187-.34 3.093-.243 4.683l.008.153-.96.147-.012-.184c-.127-1.928-.954-4.226-4.171-4.226-1.414 0-2.515.42-3.367 1.286-.91.922-1.411 2.403-1.411 4.17 0 1.587.476 3.01 1.342 4.01.821.934 2.062 1.428 3.587 1.428 2.28 0 3.76-1.06 4.657-3.337l.076-.193zm106.314-59.317V8.03c0-5.808 12.18-3.653 12.18-3.653 5.601 1.312 9.564 6.558 9.564 15.831 0 9.276-3.963 15.456-11.138 15.456h-10.606zm67.145-27.165c-3.848 1.932-9.388 5.433-13.374 8.042a1.683 1.683 0 01-2.128-.24l-4.112-4.22a1.79 1.79 0 00-2.519-.045l-5.224 5.01a1.756 1.756 0 00-.042 2.497l8.24 8.464a5.445 5.445 0 006.965.69c.112-.078 11.23-7.674 17.082-10.613 4.836-2.428 15.893-4.38 24.272-.864 4.473 1.879 14.596 7.431 15.463 19.193h-50.99c-5.455 0-13.463-1.2-18.215-4.803a.799.799 0 00-1.032.039l-5.465 4.153c-.183.131-.958.61-2.665.61h-8.904c4.957-2.521 9.804-7.38 9.804-16.765C153.27.442 133.771.242 130.877.242c-8.821 0-19.278.262-19.278.262s-9.226-.118-17.87-.503c-.325-.015-.507.253-.595.564-.071.25-.139.766-.135 1.024.003.216.019.651.103.86.107.275.249.53.545.555 2.313.195 11.665 1.488 11.665 9.617v23.792h-3.681c-1.708 0-2.482-.48-2.666-.611L93.5 31.649a.799.799 0 00-1.033-.04c-4.752 3.605-12.758 4.804-18.214 4.804H23.264c.867-11.762 10.99-17.314 15.463-19.193 8.377-3.516 19.436-1.564 24.271.864 5.852 2.94 16.97 10.535 17.082 10.613a5.445 5.445 0 006.964-.69l8.242-8.464c.682-.7.663-1.82-.043-2.497l-5.225-5.01a1.789 1.789 0 00-2.517.044l-4.112 4.222a1.685 1.685 0 01-2.13.239c-3.984-2.61-9.525-6.11-13.372-8.042-6.622-3.323-20.973-6.38-33.377-1.17-13.874 5.823-22.156 17.298-22.156 30.695 0 13.396 8.282 24.87 22.156 30.696 4.81 2.021 9.915 2.797 14.747 2.797 7.628 0 14.577-1.934 18.63-3.97 3.847-1.93 9.388-5.432 13.373-8.038a1.685 1.685 0 012.13.237l4.111 4.222c.684.702 1.81.721 2.517.043l5.225-5.009a1.758 1.758 0 00.043-2.497l-8.242-8.464a5.443 5.443 0 00-6.964-.69c-.113.078-11.23 7.673-17.08 10.613-4.835 2.428-15.894 4.38-24.273.864-4.473-1.879-14.596-7.431-15.463-19.193h50.99c5.455 0 13.461 1.2 18.213 4.804a.799.799 0 001.033-.04l5.419-4.115c.543-.54 1.767-.634 2.367-.649h4.026V64.24c0 4.14-1.73 9.545-10.73 9.738-.276.005-.426.234-.504.496a2.963 2.963 0 00-.136.902c0 .404.04.698.136.916.113.252.227.502.507.502h35.058c.308 0 .47-.263.56-.557.057-.184.135-.396.135-.879 0-.417-.135-.83-.135-.83-.131-.35-.253-.545-.556-.551-8.955-.214-10.679-5.605-10.679-9.737V40.955h6.54c2.143 0 4.219.786 5.772 2.252 2.215 2.092 5.005 6.865 6.412 13.538 2.55 12.084 4.558 20.33 12.178 21.682 7.411 1.313 13.144-2.369 15.838-9.83.07-.19-.03-.397-.155-.556-.157-.2-.282-.379-.724-.684a3.253 3.253 0 00-1.047-.493c-.255-.063-.51-.086-.64.143-.731 1.309-3.178 5.195-6.475 5.195-3.965 0-4.91-6.744-5.759-12.178-.82-5.245-4.741-15.706-16.638-20.389h18.443c.6.015 1.824.11 2.367.649l5.419 4.116c.29.267.72.276 1.032.039 4.752-3.603 12.76-4.804 18.214-4.804h50.991c-.867 11.762-10.99 17.314-15.465 19.193-8.378 3.517-19.436 1.564-24.272-.864-5.85-2.94-16.968-10.535-17.08-10.613a5.444 5.444 0 00-6.964.69l-8.24 8.464c-.686.7-.665 1.82.041 2.497l5.224 5.009a1.79 1.79 0 002.519-.043l4.112-4.222a1.683 1.683 0 012.128-.237c3.986 2.606 9.526 6.108 13.373 8.039 4.052 2.035 11.003 3.97 18.63 3.97 4.833 0 9.937-.777 14.748-2.798 13.874-5.826 22.155-17.3 22.155-30.696 0-13.397-8.283-24.872-22.155-30.696-12.404-5.209-26.755-2.152-33.377 1.171z" fill="#E9E2D8" fill-rule="evenodd"/></svg>