<svg width="30" height="30" xmlns="http://www.w3.org/2000/svg"><path d="M14.624 8.216A7.366 7.366 0 007.252 15.6a7.366 7.366 0 007.372 7.384 7.366 7.366 0 007.372-7.384 7.366 7.366 0 00-7.372-7.384zm0 12.185A4.805 4.805 0 019.83 15.6c0-2.648 2.15-4.8 4.793-4.8a4.801 4.801 0 014.792 4.8c0 2.648-2.155 4.8-4.792 4.8zm9.393-12.487c0 .958-.77 1.722-1.72 1.722-.956 0-1.72-.77-1.72-1.722a1.721 1.721 0 113.439 0zm4.882 1.748c-.11-2.307-.635-4.35-2.323-6.034-1.68-1.684-3.72-2.211-6.024-2.327-2.374-.135-9.489-.135-11.863 0-2.297.11-4.337.636-6.024 2.32C.978 5.305.458 7.348.342 9.656c-.134 2.377-.134 9.504 0 11.882.11 2.307.636 4.35 2.323 6.034 1.687 1.684 3.721 2.211 6.024 2.327 2.374.135 9.49.135 11.863 0 2.303-.11 4.344-.636 6.024-2.327 1.681-1.683 2.207-3.727 2.323-6.034.135-2.378.135-9.498 0-11.876zm-3.067 14.427a4.856 4.856 0 01-2.733 2.738c-1.893.752-6.384.578-8.475.578-2.092 0-6.59.167-8.475-.578a4.856 4.856 0 01-2.733-2.738c-.751-1.895-.578-6.394-.578-8.489 0-2.095-.167-6.6.578-8.49.5-1.259 1.469-2.23 2.733-2.737 1.892-.752 6.383-.578 8.475-.578 2.091 0 6.589-.167 8.475.578a4.856 4.856 0 012.733 2.738c.75 1.895.578 6.394.578 8.489 0 2.095.173 6.6-.578 8.49z" fill="#E9E2D8" fill-rule="nonzero"/></svg>