<svg width="30" height="30" xmlns="http://www.w3.org/2000/svg"><path d="M26.602 8.381c.019.263.019.525.019.788 0 8.006-6.178 17.231-17.469 17.231-3.478 0-6.71-.994-9.428-2.719.494.056.97.075 1.483.075 2.87 0 5.512-.956 7.622-2.587-2.7-.056-4.961-1.8-5.74-4.2.38.056.76.093 1.16.093.55 0 1.102-.075 1.615-.206-2.813-.562-4.923-3-4.923-5.944v-.074c.817.45 1.767.73 2.775.768A6.031 6.031 0 01.979 6.562c0-1.125.304-2.156.836-3.056 3.022 3.675 7.565 6.075 12.66 6.338a6.748 6.748 0 01-.153-1.388c0-3.337 2.738-6.056 6.14-6.056 1.768 0 3.364.731 4.486 1.912a12.19 12.19 0 003.897-1.462 6.056 6.056 0 01-2.7 3.337 12.442 12.442 0 003.536-.937 13.102 13.102 0 01-3.08 3.131z" fill="#E9E2D8" fill-rule="evenodd"/></svg>