<?xml version="1.0" standalone="no"?>
<!DOCTYPE svg PUBLIC "-//W3C//DTD SVG 20010904//EN"
 "http://www.w3.org/TR/2001/REC-SVG-20010904/DTD/svg10.dtd">
<svg version="1.0" xmlns="http://www.w3.org/2000/svg"
 width="260.000000pt" height="260.000000pt" viewBox="0 0 260.000000 260.000000"
 preserveAspectRatio="xMidYMid meet">
<metadata>
Created by potrace 1.11, written by Peter Selinger 2001-2013
</metadata>
<g transform="translate(0.000000,260.000000) scale(0.100000,-0.100000)"
fill="#000000" stroke="none">
<path d="M838 2209 c-318 -64 -587 -256 -725 -519 -67 -128 -92 -246 -88 -410
1 -69 5 -134 8 -145 37 -143 65 -208 132 -310 29 -44 77 -104 107 -134 60 -61
161 -141 177 -141 6 0 11 -4 11 -8 0 -12 202 -107 270 -127 155 -45 384 -54
555 -20 186 37 280 78 529 234 71 45 136 81 146 81 9 0 48 -31 86 -70 49 -50
76 -70 94 -70 19 0 50 23 112 84 73 70 86 87 81 107 -4 13 -68 85 -142 160
-183 184 -193 185 -392 54 -383 -253 -490 -297 -734 -299 -71 0 -149 2 -173 6
-163 28 -362 149 -457 278 -62 84 -113 214 -111 280 1 13 90 15 741 14 407 0
769 -3 805 -7 105 -11 218 -43 307 -88 49 -25 87 -38 95 -33 7 4 48 34 91 67
l79 59 76 2 77 2 3 44 3 45 -80 2 -80 1 -78 59 c-43 33 -84 63 -91 67 -8 5
-46 -8 -95 -33 -82 -41 -186 -73 -287 -87 -61 -8 -1570 -12 -1570 -4 0 3 7 35
15 73 46 220 262 423 514 484 134 32 356 22 495 -23 83 -27 238 -115 448 -255
147 -98 169 -106 235 -88 36 10 65 34 172 145 71 73 131 143 134 155 5 19 -10
38 -81 106 -61 58 -94 83 -112 83 -18 0 -45 -20 -94 -70 -38 -38 -77 -70 -86
-70 -10 0 -80 39 -156 87 -234 147 -339 193 -520 229 -116 23 -338 25 -446 3z"/>
</g>
</svg>
